<svg version="1.1" id="Layer_1" xmlns="http://www.w3.org/2000/svg" xmlns:xlink="http://www.w3.org/1999/xlink" x="0px" y="0px"
	 width="100%" viewBox="0 0 536 127" enable-background="new 0 0 536 127" xml:space="preserve">
<path fill="#000000" opacity="1.000000" stroke="none" 
	d="
M537.000000,95.000000 
	C537.000000,105.990578 537.000000,116.981155 537.000000,128.000000 
	C377.979095,128.000000 218.958206,128.000000 59.455563,127.643250 
	C59.264656,126.898796 59.472244,126.366486 59.858330,126.144211 
	C75.919472,116.897369 91.943161,107.582619 108.122032,98.545830 
	C110.964447,96.958183 112.119453,95.427094 112.086510,92.097290 
	C111.905312,73.782837 111.770096,55.460876 112.149994,37.152515 
	C112.254372,32.121902 110.172226,29.747545 106.241302,27.571297 
	C93.936127,20.758862 81.718239,13.785464 69.557961,6.717147 
	C66.846893,5.141307 64.509460,2.922682 62.000000,1.000000 
	C220.333344,1.000000 378.666687,1.000000 537.000000,1.000000 
	C537.000000,20.427683 537.000000,39.745182 536.703979,59.827888 
	C535.609436,59.421574 535.010803,58.018642 533.974060,57.122810 
	C531.095703,54.635677 528.366760,51.546806 524.979370,50.164337 
	C517.244019,47.007404 511.239502,50.874050 505.757782,57.062576 
	C505.757782,54.354942 505.757782,52.265987 505.757782,50.166523 
	C501.291565,50.166523 497.146301,50.166523 492.731110,50.118206 
	C492.369476,50.378040 492.277740,50.686192 492.113342,51.458344 
	C492.089142,65.948174 492.137573,79.974007 492.127808,94.267853 
	C492.378204,94.635002 492.686798,94.734131 493.455933,94.910767 
	C497.845947,94.988274 501.775391,94.988274 506.000336,94.988274 
	C506.000336,86.590164 505.928223,78.655678 506.029083,70.723389 
	C506.084106,66.396873 510.652557,61.514809 514.831116,61.001472 
	C520.001099,60.366337 522.196655,62.071674 523.688782,68.200935 
	C524.072449,69.776909 523.981262,71.485321 523.987671,73.133362 
	C524.015869,80.368240 523.999878,87.603287 523.999878,95.000000 
	C528.733459,95.000000 532.866760,95.000000 537.000000,95.000000 
M290.535828,94.926804 
	C290.623840,94.617355 290.711884,94.307907 290.939575,93.070641 
	C290.893250,79.049423 290.846893,65.028198 290.928436,50.470203 
	C290.618195,50.369125 290.307953,50.268044 289.077515,50.011913 
	C285.154724,50.011913 281.231964,50.011913 277.312378,50.011913 
	C277.312378,65.261993 277.312378,80.055489 277.312378,94.833023 
	C281.747437,94.833023 285.869934,94.833023 290.535828,94.926804 
M381.923584,94.988258 
	C385.857513,94.988258 389.791412,94.988258 393.999817,94.988258 
	C393.999817,86.053062 394.063965,77.603043 393.954102,69.155289 
	C393.927094,67.078285 393.343231,65.006866 392.997040,62.935951 
	C391.363220,53.162891 380.615814,45.638176 370.902435,50.679306 
	C367.907349,52.233723 365.323792,54.580952 362.019958,56.945858 
	C362.019958,49.276627 362.019958,41.664928 362.019958,34.345711 
	C357.227570,34.345711 353.160187,34.345711 348.999878,34.345711 
	C348.999878,44.660881 348.999908,54.630520 348.999908,64.600159 
	C348.999908,74.674492 348.999878,84.748825 348.999878,94.833328 
	C353.727173,94.833328 357.861603,94.833328 362.537415,94.928719 
	C362.627502,94.619972 362.717590,94.311226 362.950348,93.074539 
	C362.954956,85.915131 362.950287,78.755707 362.967712,71.596329 
	C362.978058,67.349503 366.488434,62.458321 370.403107,61.184822 
	C375.904205,59.395241 379.937256,62.242104 380.001740,68.028648 
	C380.098236,76.682648 380.137909,85.337265 380.071808,94.528572 
	C380.382385,94.630135 380.692932,94.731697 381.923584,94.988258 
M140.069885,94.534508 
	C140.378967,94.634071 140.688065,94.733643 141.923462,94.988121 
	C154.239578,94.988121 166.555695,94.988121 178.834045,94.988121 
	C178.834045,90.583595 178.834045,86.799828 178.923096,82.466942 
	C178.611374,82.383720 178.299637,82.300507 177.060410,82.086075 
	C169.456818,82.086075 161.853241,82.086075 154.253143,82.086075 
	C154.253143,78.097061 154.253143,74.686958 154.253143,71.000000 
	C156.467758,71.000000 158.439987,71.000038 160.412201,70.999992 
	C172.349182,70.999687 172.352264,70.999573 171.935501,59.039116 
	C171.926041,58.767353 171.626801,58.505684 171.220734,57.846359 
	C165.709244,57.846359 159.958679,57.846359 154.281494,57.846359 
	C154.281494,54.032185 154.281494,50.625118 154.281494,46.832962 
	C162.303177,46.832962 170.049866,46.832962 177.710907,46.832962 
	C177.710907,42.351059 177.710907,38.277813 177.710907,34.166553 
	C165.282318,34.166553 153.142456,34.166553 140.461807,34.070400 
	C140.370895,34.378971 140.279984,34.687542 140.045319,35.924091 
	C140.093246,55.282108 140.141159,74.640129 140.069885,94.534508 
M441.474182,59.012241 
	C438.124847,63.275936 436.830383,68.086716 436.944244,73.523247 
	C437.173676,84.476006 444.004669,92.675331 456.317444,95.658943 
	C463.113251,97.305687 476.111542,93.458046 481.150665,84.597862 
	C486.990570,74.329681 484.440277,58.755238 472.169281,52.127254 
	C461.455231,46.340221 448.811188,49.023350 441.474182,59.012241 
M319.276154,95.039040 
	C326.221619,97.340042 338.667206,92.136177 340.939758,85.250206 
	C336.196289,83.161179 332.087006,79.773262 326.053711,83.173317 
	C321.354950,85.821312 316.323120,83.406181 313.211792,78.733879 
	C310.374329,74.472908 310.753387,68.055084 314.054413,64.466339 
	C317.316925,60.919476 323.988129,59.410725 327.863464,62.088772 
	C330.799500,64.117729 332.933838,64.057167 335.644867,62.091980 
	C337.164459,60.990459 339.077667,60.431889 340.809937,59.630337 
	C337.806732,51.459713 324.318604,47.738190 317.948029,49.588882 
	C300.864044,54.551899 297.684204,63.971241 299.151398,77.891777 
	C299.958588,85.550087 307.947388,94.131721 319.276154,95.039040 
M191.951370,57.577389 
	C186.454834,63.783764 185.707336,71.364197 187.445786,78.759354 
	C190.032074,89.761292 198.710983,94.952637 209.113953,95.706764 
	C216.954681,96.275154 224.393890,93.244675 229.370529,85.402191 
	C224.614044,83.426361 220.925507,79.283623 215.006943,83.257690 
	C211.092651,85.885971 204.908508,83.557907 201.841171,79.460258 
	C198.506516,75.005508 198.450531,68.802231 201.708786,64.795082 
	C204.460037,61.411472 211.517593,59.118408 214.959991,61.742863 
	C221.049286,66.385277 224.421387,60.589058 229.324997,59.834011 
	C221.735428,47.429649 203.233063,45.402870 191.951370,57.577389 
M406.999908,42.584709 
	C406.999908,45.020042 406.999908,47.455372 406.999908,49.805637 
	C404.646484,49.989349 402.898773,50.125778 401.295654,50.250923 
	C401.295654,54.042221 401.295654,57.459423 401.295654,60.841923 
	C403.339020,60.985931 405.084534,61.108955 406.498230,61.208588 
	C407.016144,69.832794 406.994690,78.114479 408.146149,86.229759 
	C409.308411,94.421448 414.620667,96.815018 426.821930,94.895035 
	C433.266937,93.880852 428.624969,88.312164 429.960693,85.101784 
	C430.160156,84.622398 429.846313,83.929420 429.767639,83.317383 
	C423.110748,84.809120 420.533051,83.833481 420.130920,78.852913 
	C419.655640,72.966560 420.019318,67.012466 420.019318,60.723755 
	C423.736786,60.723755 426.817932,60.723755 429.670227,60.723755 
	C429.670227,56.921497 429.670227,53.512115 429.670227,49.726860 
	C426.261475,49.726860 423.181519,49.726860 419.729431,49.726860 
	C419.729431,45.926289 419.729431,42.515862 419.729431,39.000080 
	C416.179596,39.000080 413.001434,38.785137 409.882599,39.121044 
	C408.843597,39.232941 407.956604,40.756275 406.999908,42.584709 
M268.516815,49.085548 
	C260.401001,49.085583 253.960510,51.876522 250.081192,59.873699 
	C250.081192,56.683647 250.081192,53.493591 250.081192,50.233902 
	C245.468048,50.233902 241.395844,50.233902 237.231247,50.233902 
	C237.231247,65.202515 237.231247,79.935768 237.231247,94.769104 
	C241.534500,94.769104 245.604431,94.769104 250.000458,94.769104 
	C250.000458,90.416031 249.886673,86.282745 250.022141,82.157646 
	C250.403305,70.550507 254.450272,62.022526 268.965759,61.744194 
	C268.965759,57.808033 268.965759,53.849121 268.516815,49.085548 
M289.995819,35.683277 
	C289.564392,35.130882 289.148193,34.113750 288.699127,34.099037 
	C284.827362,33.972202 280.949707,34.026108 277.310425,34.026108 
	C277.310425,38.078556 277.310425,41.463131 277.310425,44.735352 
	C281.670135,44.735352 285.715546,44.735352 289.999725,44.735352 
	C289.999725,41.861961 289.999725,39.250507 289.995819,35.683277 
z"/>
<path fill="#650D1B" opacity="1.000000" stroke="none" 
	d="
M61.539364,1.000000 
	C64.509460,2.922682 66.846893,5.141307 69.557961,6.717147 
	C81.718239,13.785464 93.936127,20.758862 106.241302,27.571297 
	C110.172226,29.747545 112.254372,32.121902 112.149994,37.152515 
	C111.770096,55.460876 111.905312,73.782837 112.086510,92.097290 
	C112.119453,95.427094 110.964447,96.958183 108.122032,98.545830 
	C91.943161,107.582619 75.919472,116.897369 59.858330,126.144211 
	C59.472244,126.366486 59.264656,126.898796 58.986904,127.643250 
	C57.285641,128.000000 55.571285,128.000000 53.442467,127.644440 
	C45.165794,122.509338 37.377441,117.602585 29.422178,112.983292 
	C20.023434,107.525818 10.480454,102.316750 1.000001,97.000000 
	C1.000000,74.979103 1.000000,52.958210 1.365193,30.493622 
	C14.753308,22.615963 27.819113,15.255470 40.769218,7.696747 
	C44.036095,5.789933 46.933052,3.249344 50.000000,1.000000 
	C53.692909,1.000000 57.385818,1.000000 61.539364,1.000000 
M95.000000,58.502956 
	C94.999931,54.343746 94.838341,50.176090 95.055191,46.028221 
	C95.205910,43.145283 94.130676,41.582077 91.603806,40.172607 
	C80.778587,34.134380 70.147842,27.746134 59.289829,21.769564 
	C57.668091,20.876907 54.773403,20.693142 53.215084,21.546465 
	C42.198421,27.579102 31.296089,33.836151 20.585775,40.394745 
	C19.085024,41.313744 18.153351,44.255264 18.112328,46.283913 
	C17.880297,57.758656 18.162064,69.244118 17.906223,80.717857 
	C17.824259,84.393761 19.131676,86.427902 22.217611,88.131157 
	C32.206566,93.644432 42.196320,99.176674 51.929886,105.120636 
	C55.131439,107.075722 57.498329,107.029114 60.525562,105.236862 
	C70.908287,99.089844 81.457474,93.220139 91.750336,86.929184 
	C93.349579,85.951729 94.759872,83.366425 94.853981,81.455521 
	C95.213608,74.152992 94.999725,66.822227 95.000000,58.502956 
z"/>
<path fill="#FEFEFE" opacity="1.000000" stroke="none" 
	d="
M492.186005,93.999840 
	C492.137573,79.974007 492.089142,65.948174 492.289368,51.364468 
	C492.753052,50.637131 492.907349,50.423771 493.001007,50.166523 
	C497.146301,50.166523 501.291565,50.166523 505.757782,50.166523 
	C505.757782,52.265987 505.757782,54.354942 505.757782,57.062576 
	C511.239502,50.874050 517.244019,47.007404 524.979370,50.164337 
	C528.366760,51.546806 531.095703,54.635677 533.974060,57.122810 
	C535.010803,58.018642 535.609436,59.421574 536.703979,60.296547 
	C537.000000,71.354225 537.000000,82.708458 537.000000,94.531342 
	C532.866760,95.000000 528.733459,95.000000 523.999878,95.000000 
	C523.999878,87.603287 524.015869,80.368240 523.987671,73.133362 
	C523.981262,71.485321 524.072449,69.776909 523.688782,68.200935 
	C522.196655,62.071674 520.001099,60.366337 514.831116,61.001472 
	C510.652557,61.514809 506.084106,66.396873 506.029083,70.723389 
	C505.928223,78.655678 506.000336,86.590164 506.000336,94.988274 
	C501.775391,94.988274 497.845947,94.988274 493.364410,94.733475 
	C492.653015,94.254379 492.444214,94.094765 492.186005,93.999840 
z"/>
<path fill="#000000" opacity="1.000000" stroke="none" 
	d="
M1.000001,97.468658 
	C10.480454,102.316750 20.023434,107.525818 29.422178,112.983292 
	C37.377441,117.602585 45.165794,122.509338 53.014008,127.644440 
	C35.758549,128.000000 18.517096,128.000000 1.000000,128.000000 
	C1.000000,117.980789 1.000000,107.959053 1.000001,97.468658 
z"/>
<path fill="#000000" opacity="1.000000" stroke="none" 
	d="
M49.531342,1.000000 
	C46.933052,3.249344 44.036095,5.789933 40.769218,7.696747 
	C27.819113,15.255470 14.753308,22.615963 1.365193,30.024963 
	C1.000000,20.387880 1.000000,10.775761 1.000000,1.000000 
	C17.020575,1.000000 33.041630,1.000000 49.531342,1.000000 
z"/>
<path fill="#FEFEFE" opacity="1.000000" stroke="none" 
	d="
M178.834045,83.016060 
	C178.834045,86.799828 178.834045,90.583595 178.834045,94.988121 
	C166.555695,94.988121 154.239578,94.988121 141.369171,94.733017 
	C140.656784,94.252136 140.448181,94.092209 140.189072,93.998146 
	C140.141159,74.640129 140.093246,55.282108 140.293472,35.366425 
	C140.755844,34.638168 140.909500,34.424099 141.002609,34.166553 
	C153.142456,34.166553 165.282318,34.166553 177.710907,34.166553 
	C177.710907,38.277813 177.710907,42.351059 177.710907,46.832962 
	C170.049866,46.832962 162.303177,46.832962 154.281494,46.832962 
	C154.281494,50.625118 154.281494,54.032185 154.281494,57.846359 
	C159.958679,57.846359 165.709244,57.846359 171.220734,57.846359 
	C171.626801,58.505684 171.926041,58.767353 171.935501,59.039116 
	C172.352264,70.999573 172.349182,70.999687 160.412201,70.999992 
	C158.439987,71.000038 156.467758,71.000000 154.253143,71.000000 
	C154.253143,74.686958 154.253143,78.097061 154.253143,82.086075 
	C161.853241,82.086075 169.456818,82.086075 177.609894,82.335022 
	C178.342239,82.793579 178.567139,82.937607 178.834045,83.016060 
z"/>
<path fill="#FEFEFE" opacity="1.000000" stroke="none" 
	d="
M361.996033,94.833328 
	C357.861603,94.833328 353.727173,94.833328 348.999878,94.833328 
	C348.999878,84.748825 348.999908,74.674492 348.999908,64.600159 
	C348.999908,54.630520 348.999878,44.660881 348.999878,34.345711 
	C353.160187,34.345711 357.227570,34.345711 362.019958,34.345711 
	C362.019958,41.664928 362.019958,49.276627 362.019958,56.945858 
	C365.323792,54.580952 367.907349,52.233723 370.902435,50.679306 
	C380.615814,45.638176 391.363220,53.162891 392.997040,62.935951 
	C393.343231,65.006866 393.927094,67.078285 393.954102,69.155289 
	C394.063965,77.603043 393.999817,86.053062 393.999817,94.988258 
	C389.791412,94.988258 385.857513,94.988258 381.374573,94.731339 
	C380.673584,94.241249 380.465637,94.080315 380.201782,93.991623 
	C380.137909,85.337265 380.098236,76.682648 380.001740,68.028648 
	C379.937256,62.242104 375.904205,59.395241 370.403107,61.184822 
	C366.488434,62.458321 362.978058,67.349503 362.967712,71.596329 
	C362.950287,78.755707 362.954956,85.915131 362.702515,93.631866 
	C362.241364,94.360832 362.088470,94.575546 361.996033,94.833328 
z"/>
<path fill="#FEFEFE" opacity="1.000000" stroke="none" 
	d="
M441.718384,58.724876 
	C448.811188,49.023350 461.455231,46.340221 472.169281,52.127254 
	C484.440277,58.755238 486.990570,74.329681 481.150665,84.597862 
	C476.111542,93.458046 463.113251,97.305687 456.317444,95.658943 
	C444.004669,92.675331 437.173676,84.476006 436.944244,73.523247 
	C436.830383,68.086716 438.124847,63.275936 441.718384,58.724876 
M471.000214,69.529099 
	C469.428253,61.856186 462.769562,60.195019 457.944580,61.105839 
	C452.452545,62.142563 448.529236,69.945839 450.064850,76.129196 
	C451.311249,81.148048 458.027863,85.254593 463.184753,83.895271 
	C470.594360,81.942154 471.793640,76.882324 471.000214,69.529099 
z"/>
<path fill="#FEFEFE" opacity="1.000000" stroke="none" 
	d="
M318.850037,95.021133 
	C307.947388,94.131721 299.958588,85.550087 299.151398,77.891777 
	C297.684204,63.971241 300.864044,54.551899 317.948029,49.588882 
	C324.318604,47.738190 337.806732,51.459713 340.809937,59.630337 
	C339.077667,60.431889 337.164459,60.990459 335.644867,62.091980 
	C332.933838,64.057167 330.799500,64.117729 327.863464,62.088772 
	C323.988129,59.410725 317.316925,60.919476 314.054413,64.466339 
	C310.753387,68.055084 310.374329,74.472908 313.211792,78.733879 
	C316.323120,83.406181 321.354950,85.821312 326.053711,83.173317 
	C332.087006,79.773262 336.196289,83.161179 340.939758,85.250206 
	C338.667206,92.136177 326.221619,97.340042 318.850037,95.021133 
z"/>
<path fill="#FEFEFE" opacity="1.000000" stroke="none" 
	d="
M192.201782,57.304184 
	C203.233063,45.402870 221.735428,47.429649 229.324997,59.834011 
	C224.421387,60.589058 221.049286,66.385277 214.959991,61.742863 
	C211.517593,59.118408 204.460037,61.411472 201.708786,64.795082 
	C198.450531,68.802231 198.506516,75.005508 201.841171,79.460258 
	C204.908508,83.557907 211.092651,85.885971 215.006943,83.257690 
	C220.925507,79.283623 224.614044,83.426361 229.370529,85.402191 
	C224.393890,93.244675 216.954681,96.275154 209.113953,95.706764 
	C198.710983,94.952637 190.032074,89.761292 187.445786,78.759354 
	C185.707336,71.364197 186.454834,63.783764 192.201782,57.304184 
z"/>
<path fill="#FEFEFE" opacity="1.000000" stroke="none" 
	d="
M407.000031,42.109543 
	C407.956604,40.756275 408.843597,39.232941 409.882599,39.121044 
	C413.001434,38.785137 416.179596,39.000080 419.729431,39.000080 
	C419.729431,42.515862 419.729431,45.926289 419.729431,49.726860 
	C423.181519,49.726860 426.261475,49.726860 429.670227,49.726860 
	C429.670227,53.512115 429.670227,56.921497 429.670227,60.723755 
	C426.817932,60.723755 423.736786,60.723755 420.019318,60.723755 
	C420.019318,67.012466 419.655640,72.966560 420.130920,78.852913 
	C420.533051,83.833481 423.110748,84.809120 429.767639,83.317383 
	C429.846313,83.929420 430.160156,84.622398 429.960693,85.101784 
	C428.624969,88.312164 433.266937,93.880852 426.821930,94.895035 
	C414.620667,96.815018 409.308411,94.421448 408.146149,86.229759 
	C406.994690,78.114479 407.016144,69.832794 406.498230,61.208588 
	C405.084534,61.108955 403.339020,60.985931 401.295654,60.841923 
	C401.295654,57.459423 401.295654,54.042221 401.295654,50.250923 
	C402.898773,50.125778 404.646484,49.989349 406.999908,49.805637 
	C406.999908,47.455372 406.999908,45.020042 407.000031,42.109543 
z"/>
<path fill="#FEFEFE" opacity="1.000000" stroke="none" 
	d="
M268.741272,49.487877 
	C268.965759,53.849121 268.965759,57.808033 268.965759,61.744194 
	C254.450272,62.022526 250.403305,70.550507 250.022141,82.157646 
	C249.886673,86.282745 250.000458,90.416031 250.000458,94.769104 
	C245.604431,94.769104 241.534500,94.769104 237.231247,94.769104 
	C237.231247,79.935768 237.231247,65.202515 237.231247,50.233902 
	C241.395844,50.233902 245.468048,50.233902 250.081192,50.233902 
	C250.081192,53.493591 250.081192,56.683647 250.081192,59.873699 
	C253.960510,51.876522 260.401001,49.085583 268.741272,49.487877 
z"/>
<path fill="#FEFEFE" opacity="1.000000" stroke="none" 
	d="
M290.800537,51.006981 
	C290.846893,65.028198 290.893250,79.049423 290.692383,93.626816 
	C290.233795,94.357567 290.082886,94.574242 289.992432,94.833023 
	C285.869934,94.833023 281.747437,94.833023 277.312378,94.833023 
	C277.312378,80.055489 277.312378,65.261993 277.312378,50.011913 
	C281.231964,50.011913 285.154724,50.011913 289.626953,50.268456 
	C290.329742,50.756512 290.537781,50.917175 290.800537,51.006981 
z"/>
<path fill="#FEFEFE" opacity="1.000000" stroke="none" 
	d="
M289.997772,36.161163 
	C289.999725,39.250507 289.999725,41.861961 289.999725,44.735352 
	C285.715546,44.735352 281.670135,44.735352 277.310425,44.735352 
	C277.310425,41.463131 277.310425,38.078556 277.310425,34.026108 
	C280.949707,34.026108 284.827362,33.972202 288.699127,34.099037 
	C289.148193,34.113750 289.564392,35.130882 289.997772,36.161163 
z"/>
<path fill="#F0F0F0" opacity="1.000000" stroke="none" 
	d="
M492.731110,50.118206 
	C492.907349,50.423771 492.753052,50.637131 492.362030,50.900467 
	C492.277740,50.686192 492.369476,50.378040 492.731110,50.118206 
z"/>
<path fill="#E8E8E8" opacity="1.000000" stroke="none" 
	d="
M290.864502,50.738594 
	C290.537781,50.917175 290.329742,50.756512 290.087067,50.345978 
	C290.307953,50.268044 290.618195,50.369125 290.864502,50.738594 
z"/>
<path fill="#DEDEDE" opacity="1.000000" stroke="none" 
	d="
M178.878571,82.741501 
	C178.567139,82.937607 178.342239,82.793579 178.073639,82.400620 
	C178.299637,82.300507 178.611374,82.383720 178.878571,82.741501 
z"/>
<path fill="#EEEEEE" opacity="1.000000" stroke="none" 
	d="
M140.129486,94.266327 
	C140.448181,94.092209 140.656784,94.252136 140.906006,94.655563 
	C140.688065,94.733643 140.378967,94.634071 140.129486,94.266327 
z"/>
<path fill="#E8E8E8" opacity="1.000000" stroke="none" 
	d="
M290.264130,94.879913 
	C290.082886,94.574242 290.233795,94.357567 290.622559,94.090729 
	C290.711884,94.307907 290.623840,94.617355 290.264130,94.879913 
z"/>
<path fill="#ECECEC" opacity="1.000000" stroke="none" 
	d="
M362.266724,94.881027 
	C362.088470,94.575546 362.241364,94.360832 362.631226,94.095833 
	C362.717590,94.311226 362.627502,94.619972 362.266724,94.881027 
z"/>
<path fill="#E6E6E6" opacity="1.000000" stroke="none" 
	d="
M380.136780,94.260101 
	C380.465637,94.080315 380.673584,94.241249 380.914551,94.653839 
	C380.692932,94.731697 380.382385,94.630135 380.136780,94.260101 
z"/>
<path fill="#F0F0F0" opacity="1.000000" stroke="none" 
	d="
M492.127808,94.267853 
	C492.444214,94.094765 492.653015,94.254379 492.903870,94.655975 
	C492.686798,94.734131 492.378204,94.635002 492.127808,94.267853 
z"/>
<path fill="#EEEEEE" opacity="1.000000" stroke="none" 
	d="
M140.732208,34.118477 
	C140.909500,34.424099 140.755844,34.638168 140.365356,34.902435 
	C140.279984,34.687542 140.370895,34.378971 140.732208,34.118477 
z"/>
<path fill="#000000" opacity="1.000000" stroke="none" 
	d="
M95.000000,59.002480 
	C94.999725,66.822227 95.213608,74.152992 94.853981,81.455521 
	C94.759872,83.366425 93.349579,85.951729 91.750336,86.929184 
	C81.457474,93.220139 70.908287,99.089844 60.525562,105.236862 
	C57.498329,107.029114 55.131439,107.075722 51.929886,105.120636 
	C42.196320,99.176674 32.206566,93.644432 22.217611,88.131157 
	C19.131676,86.427902 17.824259,84.393761 17.906223,80.717857 
	C18.162064,69.244118 17.880297,57.758656 18.112328,46.283913 
	C18.153351,44.255264 19.085024,41.313744 20.585775,40.394745 
	C31.296089,33.836151 42.198421,27.579102 53.215084,21.546465 
	C54.773403,20.693142 57.668091,20.876907 59.289829,21.769564 
	C70.147842,27.746134 80.778587,34.134380 91.603806,40.172607 
	C94.130676,41.582077 95.205910,43.145283 95.055191,46.028221 
	C94.838341,50.176090 94.999931,54.343746 95.000000,59.002480 
M50.056999,94.536087 
	C53.350769,96.907051 56.686703,98.087364 60.606209,95.714386 
	C67.967789,91.257500 75.521065,87.108742 82.766296,82.474854 
	C84.338211,81.469475 85.791245,78.988380 85.856613,77.136078 
	C86.173744,68.149979 86.142014,59.142384 85.879219,50.152771 
	C85.826958,48.364731 84.690010,45.859135 83.258812,44.984768 
	C75.208649,40.066654 66.967140,35.450077 58.653355,30.986866 
	C57.305084,30.263054 54.916393,30.176565 53.607857,30.891806 
	C45.477238,35.335964 37.460426,39.999641 29.559797,44.841663 
	C28.307711,45.609028 27.145214,47.632725 27.113146,49.101162 
	C26.898575,58.926853 26.920771,68.760925 27.096193,78.588173 
	C27.120138,79.929527 28.080986,81.809723 29.189871,82.485001 
	C35.832428,86.530083 42.645302,90.295486 50.056999,94.536087 
z"/>
<path fill="#000000" opacity="1.000000" stroke="none" 
	d="
M471.003662,69.932526 
	C471.793640,76.882324 470.594360,81.942154 463.184753,83.895271 
	C458.027863,85.254593 451.311249,81.148048 450.064850,76.129196 
	C448.529236,69.945839 452.452545,62.142563 457.944580,61.105839 
	C462.769562,60.195019 469.428253,61.856186 471.003662,69.932526 
z"/>
<path fill="#650D1B" opacity="1.000000" stroke="none" 
	d="
M49.729038,94.345367 
	C42.645302,90.295486 35.832428,86.530083 29.189871,82.485001 
	C28.080986,81.809723 27.120138,79.929527 27.096193,78.588173 
	C26.920771,68.760925 26.898575,58.926853 27.113146,49.101162 
	C27.145214,47.632725 28.307711,45.609028 29.559797,44.841663 
	C37.460426,39.999641 45.477238,35.335964 53.607857,30.891806 
	C54.916393,30.176565 57.305084,30.263054 58.653355,30.986866 
	C66.967140,35.450077 75.208649,40.066654 83.258812,44.984768 
	C84.690010,45.859135 85.826958,48.364731 85.879219,50.152771 
	C86.142014,59.142384 86.173744,68.149979 85.856613,77.136078 
	C85.791245,78.988380 84.338211,81.469475 82.766296,82.474854 
	C75.521065,87.108742 67.967789,91.257500 60.606209,95.714386 
	C56.686703,98.087364 53.350769,96.907051 49.729038,94.345367 
M67.699226,57.483845 
	C60.448315,50.229218 55.742756,49.567123 47.862499,54.692722 
	C44.600182,56.814655 42.293930,66.870461 44.334656,70.224846 
	C44.571941,70.614876 45.029942,70.911308 45.445068,71.145958 
	C48.458275,72.849159 51.427402,74.649628 54.544735,76.138161 
	C55.544464,76.615532 57.149254,76.666534 58.135277,76.196022 
	C64.775299,73.027557 70.390625,69.100502 68.017685,60.272709 
	C67.850014,59.648945 67.951035,58.952953 67.699226,57.483845 
z"/>
<path fill="#000000" opacity="1.000000" stroke="none" 
	d="
M67.813171,57.887199 
	C67.951035,58.952953 67.850014,59.648945 68.017685,60.272709 
	C70.390625,69.100502 64.775299,73.027557 58.135277,76.196022 
	C57.149254,76.666534 55.544464,76.615532 54.544735,76.138161 
	C51.427402,74.649628 48.458275,72.849159 45.445068,71.145958 
	C45.029942,70.911308 44.571941,70.614876 44.334656,70.224846 
	C42.293930,66.870461 44.600182,56.814655 47.862499,54.692722 
	C55.742756,49.567123 60.448315,50.229218 67.813171,57.887199 
z"/>
</svg>